<?xml version="1.0" encoding="UTF-8" standalone="no"?>
<!-- Created with Inkscape (http://www.inkscape.org/) -->

<svg
   xmlns:dc="http://purl.org/dc/elements/1.1/"
   xmlns:cc="http://creativecommons.org/ns#"
   xmlns:rdf="http://www.w3.org/1999/02/22-rdf-syntax-ns#"
   xmlns:svg="http://www.w3.org/2000/svg"
   xmlns="http://www.w3.org/2000/svg"
   xmlns:sodipodi="http://sodipodi.sourceforge.net/DTD/sodipodi-0.dtd"
   xmlns:inkscape="http://www.inkscape.org/namespaces/inkscape"
   version="1.1"
   width="300"
   height="300"
   id="svg3027"
   inkscape:version="0.48.5 r10040"
   sodipodi:docname="logo.svg">
  <sodipodi:namedview
     pagecolor="#ffffff"
     bordercolor="#666666"
     borderopacity="1"
     objecttolerance="10"
     gridtolerance="10"
     guidetolerance="10"
     inkscape:pageopacity="0"
     inkscape:pageshadow="2"
     inkscape:window-width="1227"
     inkscape:window-height="709"
     id="namedview23"
     showgrid="false"
     inkscape:zoom="0.59"
     inkscape:cx="148.9087"
     inkscape:cy="-73.296587"
     inkscape:window-x="0"
     inkscape:window-y="0"
     inkscape:window-maximized="0"
     inkscape:current-layer="svg3027" />
  <defs
     id="defs3029" />
  <metadata
     id="metadata3032">
    <rdf:RDF>
      <cc:Work
         rdf:about="">
        <dc:format>image/svg+xml</dc:format>
        <dc:type
           rdf:resource="http://purl.org/dc/dcmitype/StillImage" />
        <dc:title />
      </cc:Work>
    </rdf:RDF>
  </metadata>
  <path
     d="m 51.436758,94.785455 17.14558,0 0,166.511835 -17.14558,0 z"
     id="path3196"
     style="opacity:0.63524625;fill:#ffffff;fill-opacity:0.66666667;stroke:none"
     inkscape:connector-curvature="0" />
  <path
     d="m 77.155145,140.19086 17.14558,0 0,78.94428 -17.14558,0 z"
     id="path3198"
     style="opacity:0.63524625;fill:#ffffff;fill-opacity:0.66666667;stroke:none"
     inkscape:connector-curvature="0" />
  <path
     d="m 102.87352,81.81248 17.14559,0 0,169.75509 -17.14559,0 z"
     id="path3200"
     style="opacity:0.63524625;fill:#ffffff;fill-opacity:0.66666667;stroke:none"
     inkscape:connector-curvature="0" />
  <path
     d="m 25.718386,120.7314 17.145581,0 0,88.674 -17.145581,0 z"
     id="path3202"
     style="opacity:0.63524625;fill:#ffffff;fill-opacity:0.66666667;stroke:none"
     inkscape:connector-curvature="0" />
  <path
     d="m 0,149.92059 17.14558,0 0,43.2686 -17.14558,0 z"
     id="path3204"
     style="opacity:0.63524625;fill:#ffffff;fill-opacity:0.66666667;stroke:none"
     inkscape:connector-curvature="0" />
  <path
     d="m 128.5919,68.839355 17.14558,0 0,205.430905 -17.14558,0 z"
     id="path3206"
     style="opacity:0.63524625;fill:#ffffff;fill-opacity:0.66666667;stroke:none"
     inkscape:connector-curvature="0" />
  <path
     d="m 205.69927,65.596265 17.14557,0 0,195.701025 -17.14557,0 z"
     id="path3244"
     style="opacity:0.63524625;fill:#ffffff;fill-opacity:0.66666667;stroke:none"
     inkscape:connector-curvature="0" />
  <path
     d="m 231.41766,72.08276 17.14558,0 0,179.48481 -17.14558,0 z"
     id="path3246"
     style="opacity:0.63524625;fill:#ffffff;fill-opacity:0.66666667;stroke:none"
     inkscape:connector-curvature="0" />
  <path
     d="m 257.13603,133.70438 17.1456,0 0,95.16048 -17.1456,0 z"
     id="path3248"
     style="opacity:0.63524625;fill:#ffffff;fill-opacity:0.66666667;stroke:none"
     inkscape:connector-curvature="0" />
  <path
     d="m 179.98089,65.596265 17.14559,0 0,218.403735 -17.14559,0 z"
     id="path3250"
     style="opacity:0.63524625;fill:#ffffff;fill-opacity:0.66666667;stroke:none"
     inkscape:connector-curvature="0" />
  <path
     d="m 154.26252,42.89357 17.14557,0 0,215.16048 -17.14557,0 z"
     id="path3252"
     style="opacity:0.63524625;fill:#ffffff;fill-opacity:0.66666667;stroke:none"
     inkscape:connector-curvature="0" />
  <path
     d="m 282.85442,153.16367 17.14558,0 0,36.78228 -17.14558,0 z"
     id="path3254"
     style="opacity:0.63524625;fill:#ffffff;fill-opacity:0.66666667;stroke:none"
     inkscape:connector-curvature="0" />
  <path
     style="opacity:0.63524625;fill:#ffffff;fill-opacity:0.93333333;stroke:none"
     id="path3778"
     d="m 51.436755,127.17864 17.145585,0 0,85.51184 -17.145585,0 z"
     inkscape:connector-curvature="0"
     sodipodi:nodetypes="ccccc" />
  <path
     style="opacity:0.63524625;fill:#ffffff;fill-opacity:0.93333333;stroke:none"
     id="path3780"
     d="m 77.15514,160.58405 17.145585,0 0,30.94428 -17.145585,0 z"
     inkscape:connector-curvature="0"
     sodipodi:nodetypes="ccccc" />
  <path
     style="opacity:0.63524625;fill:#ffffff;fill-opacity:0.93333333;stroke:none"
     id="path3782"
     d="m 102.87351,135.20567 17.1456,0 0,67.75509 -17.1456,0 z"
     inkscape:connector-curvature="0"
     sodipodi:nodetypes="ccccc" />
  <path
     style="opacity:0.63524625;fill:#ffffff;fill-opacity:0.93333333;stroke:none"
     id="path3784"
     d="m 25.718385,147.12459 17.145585,0 0,46.674 -17.145585,0 z"
     inkscape:connector-curvature="0"
     sodipodi:nodetypes="ccccc" />
  <path
     style="opacity:0.63524625;fill:#ffffff;fill-opacity:0.93333333;stroke:none"
     id="path3786"
     d="m 0,164.31378 17.145585,0 0,22.2686 -17.145585,0 z"
     inkscape:connector-curvature="0"
     sodipodi:nodetypes="ccccc" />
  <path
     style="opacity:0.63524625;fill:#ffffff;fill-opacity:0.93333333;stroke:none"
     id="path3788"
     d="m 128.59191,122.23255 17.14556,0 0,103.4309 -17.14556,0 z"
     inkscape:connector-curvature="0"
     sodipodi:nodetypes="ccccc" />
  <path
     style="opacity:0.63524625;fill:#ffffff;fill-opacity:0.93333333;stroke:none"
     id="path3790"
     d="m 205.69927,118.98946 17.14557,0 0,93.70102 -17.14557,0 z"
     inkscape:connector-curvature="0"
     sodipodi:nodetypes="ccccc" />
  <path
     style="opacity:0.63524625;fill:#ffffff;fill-opacity:0.93333333;stroke:none"
     id="path3792"
     d="m 231.41766,125.47595 17.14558,0 0,77.48481 -17.14558,0 z"
     inkscape:connector-curvature="0"
     sodipodi:nodetypes="ccccc" />
  <path
     style="opacity:0.63524625;fill:#ffffff;fill-opacity:0.93333333;stroke:none"
     id="path3794"
     d="m 257.13603,160.09757 17.1456,0 0,38.16048 -17.1456,0 z"
     inkscape:connector-curvature="0"
     sodipodi:nodetypes="ccccc" />
  <path
     style="opacity:0.63524625;fill:#ffffff;fill-opacity:0.93333333;stroke:none"
     id="path3796"
     d="m 179.98089,118.98946 17.14559,0 0,116.40373 -17.14559,0 z"
     inkscape:connector-curvature="0"
     sodipodi:nodetypes="ccccc" />
  <path
     style="opacity:0.63524625;fill:#ffffff;fill-opacity:0.93333333;stroke:none"
     id="path3798"
     d="m 154.26252,96.28676 17.14557,0 0,113.16048 -17.14557,0 z"
     inkscape:connector-curvature="0"
     sodipodi:nodetypes="ccccc" />
  <path
     style="opacity:0.63524625;fill:#ffffff;fill-opacity:0.93333333;stroke:none"
     id="path3800"
     d="m 282.85442,170.55686 17.14558,0 0,12.78228 -17.14558,0 z"
     inkscape:connector-curvature="0"
     sodipodi:nodetypes="ccccc" />
</svg>
